# Blender v2.93.10 OBJ File: ''
# www.blender.org
g flag_Cube.002
v 0.938549 -0.502178 0.025000
v 0.938549 0.497822 0.025000
v -0.561451 -0.502178 0.025000
v -0.561451 0.497822 0.025000
v 0.938549 -0.502178 -0.025000
v 0.938549 0.497822 -0.025000
v -0.561451 -0.502178 -0.025000
v -0.561451 0.497822 -0.025000
vt 0.000000 0.000000
vt 0.000000 1.000000
vt 1.000000 1.000000
vt 1.000000 0.000000
vt 1.000000 0.000000
vt 1.000000 1.000000
vt 0.000000 1.000000
vt 0.000000 0.000000
vn 0.0000 0.0000 1.0000
vn -0.0000 0.0000 -1.0000
s off
f 1/1/1 2/2/1 4/3/1 3/4/1
f 7/5/2 8/6/2 6/7/2 5/8/2
g edges_Cube.001
v 0.938549 -0.502178 0.025000
v 0.938549 0.497822 0.025000
v -0.561451 -0.502178 0.025000
v -0.561451 0.497822 0.025000
v 0.938549 -0.502178 -0.025000
v 0.938549 0.497822 -0.025000
v -0.561451 -0.502178 -0.025000
v -0.561451 0.497822 -0.025000
vt 0.375000 0.250000
vt 0.625000 0.250000
vt 0.625000 0.500000
vt 0.375000 0.500000
vt 0.375000 0.750000
vt 0.625000 0.750000
vt 0.625000 1.000000
vt 0.375000 1.000000
vt 0.125000 0.500000
vt 0.125000 0.750000
vt 0.875000 0.500000
vt 0.875000 0.750000
vn -1.0000 0.0000 0.0000
vn 1.0000 0.0000 0.0000
vn 0.0000 -1.0000 0.0000
vn 0.0000 1.0000 0.0000
s off
f 11/9/3 12/10/3 16/11/3 15/12/3
f 13/13/4 14/14/4 10/15/4 9/16/4
f 11/17/5 15/12/5 13/13/5 9/18/5
f 16/11/6 12/19/6 10/20/6 14/14/6
